<svg width="19" height="18" viewBox="0 0 19 18" fill="none" xmlns="http://www.w3.org/2000/svg">
<path d="M3.95833 7.50865C3.17545 7.50865 2.41015 7.30075 1.7592 6.91125C1.10826 6.52175 0.600909 5.96814 0.301312 5.32043C0.00171508 4.67271 -0.0766731 3.95999 0.07606 3.27238C0.228793 2.58477 0.605788 1.95316 1.15937 1.45742C1.71295 0.961679 2.41826 0.624076 3.1861 0.487302C3.95394 0.350528 4.74983 0.420725 5.47312 0.689017C6.19641 0.957309 6.81462 1.41165 7.24957 1.99457C7.68452 2.5775 7.91667 3.26284 7.91667 3.96392C7.91562 4.90375 7.49825 5.80482 6.75614 6.46938C6.01404 7.13394 5.00783 7.50771 3.95833 7.50865ZM3.95833 1.83708C3.4886 1.83708 3.02942 1.96182 2.63886 2.19552C2.24829 2.42922 1.94388 2.76138 1.76412 3.15001C1.58436 3.53864 1.53733 3.96628 1.62897 4.37884C1.72061 4.79141 1.94681 5.17038 2.27896 5.46782C2.61111 5.76526 3.03429 5.96782 3.495 6.04989C3.9557 6.13195 4.43323 6.08983 4.86721 5.92886C5.30118 5.76788 5.67211 5.49528 5.93307 5.14553C6.19404 4.79577 6.33333 4.38457 6.33333 3.96392C6.33271 3.40002 6.08228 2.85938 5.63702 2.46064C5.19176 2.0619 4.58803 1.83764 3.95833 1.83708ZM1.76218e-06 16.4314L17.8798 0.419191L19 1.42235L1.11942 17.4339L1.76218e-06 16.4314ZM15.0417 17.4339C14.2588 17.4339 13.4935 17.226 12.8425 16.8365C12.1916 16.447 11.6842 15.8934 11.3846 15.2457C11.085 14.5979 11.0067 13.8852 11.1594 13.1976C11.3121 12.51 11.6891 11.8784 12.2427 11.3827C12.7963 10.8869 13.5016 10.5493 14.2694 10.4125C15.0373 10.2758 15.8332 10.346 16.5565 10.6143C17.2797 10.8825 17.898 11.3369 18.3329 11.9198C18.7678 12.5027 19 13.1881 19 13.8892C18.999 14.829 18.5816 15.7301 17.8395 16.3946C17.0974 17.0592 16.0912 17.4329 15.0417 17.4339ZM15.0417 11.7623C14.5719 11.7623 14.1128 11.8871 13.7222 12.1208C13.3316 12.3545 13.0272 12.6866 12.8475 13.0752C12.6677 13.4639 12.6207 13.8915 12.7123 14.3041C12.8039 14.7166 13.0301 15.0956 13.3623 15.3931C13.6944 15.6905 14.1176 15.8931 14.5783 15.9751C15.039 16.0572 15.5166 16.0151 15.9505 15.8541C16.3845 15.6931 16.7554 15.4205 17.0164 15.0708C17.2774 14.721 17.4167 14.3098 17.4167 13.8892C17.416 13.3253 17.1656 12.7846 16.7204 12.3859C16.2751 11.9871 15.6714 11.7629 15.0417 11.7623Z" fill="black"/>
</svg>
