<svg width="34" height="29" viewBox="0 0 34 29" fill="none" xmlns="http://www.w3.org/2000/svg">
<path d="M29.75 7.25001H24.0834C22.9562 7.25001 21.8752 7.63193 21.0782 8.31175C20.2811 8.99157 19.8334 9.9136 19.8334 10.875C19.8334 11.8364 20.2811 12.7585 21.0782 13.4383C21.8752 14.1181 22.9562 14.5 24.0834 14.5H25.5C26.6272 14.5 27.7082 14.8819 28.5052 15.5617C29.3023 16.2416 29.75 17.1636 29.75 18.125C29.75 19.0864 29.3023 20.0085 28.5052 20.6883C27.7082 21.3681 26.6272 21.75 25.5 21.75H19.8334M5.66669 21.75V7.25001H9.91669C11.0439 7.25001 12.1249 7.63193 12.9219 8.31175C13.7189 8.99157 14.1667 9.9136 14.1667 10.875C14.1667 11.8364 13.7189 12.7585 12.9219 13.4383C12.1249 14.1181 11.0439 14.5 9.91669 14.5H5.66669C13.4584 14.5 12.75 19.3333 14.1667 21.75M25.5 7.25001V4.83334M24.0834 24.1667V21.75" stroke="black" stroke-width="2" stroke-linecap="round" stroke-linejoin="round"/>
</svg>
