<svg width="16" height="13" viewBox="0 0 16 13" fill="none" xmlns="http://www.w3.org/2000/svg">
<path d="M2.8139 0.594376L13.3388 0.631994C13.7543 0.632838 14.1611 0.759182 14.512 0.996401C14.8629 1.23362 15.1436 1.57202 15.3216 1.97242C15.5299 2.44749 15.6089 2.9755 15.5496 3.49627C15.4903 4.01704 15.295 4.50963 14.986 4.91791L9.69925 11.6991C9.49182 11.9525 9.23576 12.1554 8.94843 12.2941C8.66109 12.4328 8.34919 12.504 8.03387 12.5029C7.71854 12.5017 7.40716 12.4283 7.12082 12.2876C6.83448 12.1468 6.57988 11.9421 6.37427 11.6872L1.13611 4.86841C0.830066 4.45793 0.63832 3.96396 0.582721 3.44278C0.527123 2.92159 0.609909 2.39416 0.821644 1.9206C1.0025 1.52147 1.2856 1.18509 1.63817 0.950387C1.99075 0.715682 2.39839 0.592249 2.8139 0.594376Z" fill="black"/>
</svg>
